# xmcd
#
# Track frame offsets:
#	150
#	22106
#	49873
#	67681
#	131526
#	163208
#	177398
#	215081
#	240164
#	265014
#
# Disc length: 3777 seconds
#
# Revision: 0
# Processed by: cddbd v1.5PL3 Copyright (c) Steve Scherf et al.
# Submitted via: dBpowerAMP V4.0
#
DISCID=880ebf0a
DTITLE=De 2 en Blues Band - En Directo
DYEAR=1997
DGENRE=Blues
TTITLE0=Blues ain't, (is), nothing
TTITLE1=No Guerras
TTITLE2=you were wrong
TTITLE3=blues medley
TTITLE4=balada para M.
TTITLE5=Messin' with the kid
TTITLE6=¿Por qué canto blues?
TTITLE7=simple man
TTITLE8=one way out
TTITLE9=amazing grace (Bonus)
EXTD=
EXTT0=
EXTT1=
EXTT2=
EXTT3=
EXTT4=
EXTT5=
EXTT6=
EXTT7=
EXTT8=
EXTT9=
PLAYORDER=
